<svg version="1.2" xmlns="http://www.w3.org/2000/svg" viewBox="0 0 1314 1330" width="1314" height="1330">
	<title>logo-only-svg</title>
	<style>
		.s0 { fill: #282560 } 
		.s1 { fill: #61b947 } 
	</style>
	<path id="Layer" class="s0" d="m738.8 1099.8c-55.1-2-108.3-13.5-158-33.5 131.3 28 273.8-8.8 375.7-110.6l62.7 62.7c-81.8 56.4-179.2 85-280.4 81.4z"/>
	<path id="Layer" class="s1" d="m407.1 182.3c196.8-196.8 516.9-196.8 713.6 0 5 5 9.8 10.1 14.5 15.3l-52.8 52.8c-86.1-73.5-193.7-115.8-308.6-120-134.5-4.9-262.9 43-361.5 134.7-83.1 77.3-134.1 176.3-152.6 280.3-1.6-131.3 47.4-263.2 147.4-363.1z"/>
	<path id="Layer" class="s0" d="m1009.2 1237.8c-46 27.5-94.6 48.9-144.7 64.4-134.8 27.3-278.6-0.8-394.8-84.2 170.3 77.4 365 83.9 539.5 19.8z"/>
	<path id="Layer" class="s1" d="m616.6 1330.1c-153.6-11.5-303.9-75.7-421.1-192.8-227.9-228-255.9-581.3-83.9-840-108.8 257.8-58.5 567.4 151.3 777.2 21.1 21.1 43.3 40.3 66.3 58.2 15.4 20.6 32.3 40.4 51 59.1 68 68 149.8 114 236.4 138.3z"/>
	<path id="Layer" class="s0" d="m93.9 587.4c-6.7-330.9 270-600.6 600.6-587q2.5 0.1 4.9 0.2c-116.7 13.9-229.8 65.4-319.2 154.8-140.2 140.2-187.4 338.6-141.7 518.2-29.3 115-20.3 237.7 26.7 348-111-123.4-168.1-278.4-171.3-434.2z"/>
	<path id="Layer" class="s1" d="m377.1 376.3c-10.5 10.6-20.4 21.6-29.5 33 23.2-42.3 53.4-81.7 90.7-116.4 91.1-84.7 209.8-129 334.2-124.5 105.1 3.8 203.7 42.2 282.9 109l-98.9 98.9c-159.8-159.7-419.7-159.7-579.4 0z"/>
	<path id="Layer" class="s1" d="m261.4 766.7q0.8-9.3 1.9-18.6c1.1 2.7 2.3 5.4 3.5 8.2 1.7 6.9 3.8 13.8 5.8 20.6 0.7 2.5 1.4 5 2.1 7.4q0.7 2.3 1.5 4.6 3.9 12.6 8.7 25 0.5 1.3 1 2.7c2.1 5.2 4.3 10.4 6.6 15.5 22.2 52.2 53.3 101.5 94.1 145.3q6.4 6.8 13 13.4c90.3 90.3 209.5 142.3 337.8 147 111.9 4 219.3-28.4 309.1-92.1l87 87.1c-163.1 107.8-363.4 136.8-546.5 87-202.3-55-342.7-244.1-325.6-453.1z"/>
</svg>