<svg version="1.2" xmlns="http://www.w3.org/2000/svg" viewBox="0 0 539 141" width="539" height="141"><style>.a{fill:#282560}.b{fill:#61b947}</style><path class="a" d="m154.1 31.4h6.8v35.3h-6.8z"/><path class="a" d="m173.7 31.4h28.7v6h-11v29.3h-6.8v-29.3h-10.9z"/><path class="a" d="m256.8 38.2q-2.5-1.2-5.1-1.2-3.3 0-6 1.6-2.7 1.6-4.3 4.3-1.6 2.8-1.6 6 0 3.3 1.6 6.1 1.6 2.7 4.3 4.3 2.7 1.6 6 1.6 2.5 0 5-1.1 2.6-1.1 4.6-3.1l3.9 4.4q-2.7 2.8-6.4 4.5-3.7 1.6-7.5 1.6-5.1 0-9.3-2.4-4.2-2.4-6.7-6.6-2.4-4.1-2.4-9.2 0-5 2.5-9.1 2.5-4.2 6.7-6.5 4.3-2.4 9.5-2.4 3.8 0 7.4 1.5 3.6 1.5 6.2 4.2l-3.9 4.9q-1.9-2.1-4.5-3.4z"/><path fill-rule="evenodd" class="a" d="m303.7 33.4q4.3 2.3 6.8 6.5 2.5 4.1 2.5 9.1 0 5.1-2.5 9.2-2.5 4.2-6.8 6.6-4.3 2.4-9.5 2.4-5.3 0-9.6-2.4-4.3-2.4-6.8-6.6-2.4-4.1-2.4-9.2 0-5 2.4-9.1 2.5-4.2 6.8-6.5 4.3-2.4 9.6-2.4 5.2 0 9.5 2.4zm-15.4 5.2q-2.8 1.6-4.4 4.4-1.6 2.7-1.6 6 0 3.4 1.6 6.1 1.6 2.8 4.4 4.4 2.7 1.6 6 1.6 3.1 0 5.9-1.6 2.7-1.6 4.3-4.4 1.6-2.7 1.6-6.1 0-3.3-1.6-6-1.6-2.8-4.3-4.4-2.8-1.6-5.9-1.6-3.3 0-6 1.6z"/><path class="a" d="m327 31.4h7.7l11.7 22.8 11.6-22.8h7.7v35.3h-6.2v-25.3l-11 21.7h-4.3l-11.1-21.7v25.3h-6.1z"/><path class="a" d="m382.4 31.4h24.4l-0.1 5.9h-17.5v9.6h15.9v5.9h-15.9v13.9h-6.8z"/><path fill-rule="evenodd" class="a" d="m445.4 33.4q4.3 2.3 6.8 6.5 2.5 4.1 2.5 9.1 0 5.1-2.5 9.2-2.5 4.2-6.8 6.6-4.3 2.4-9.5 2.4-5.3 0-9.6-2.4-4.3-2.4-6.7-6.6-2.5-4.1-2.5-9.2 0-5 2.5-9.1 2.4-4.2 6.7-6.5 4.3-2.4 9.6-2.4 5.2 0 9.5 2.4zm-15.4 5.2q-2.8 1.6-4.4 4.4-1.6 2.7-1.6 6 0 3.4 1.6 6.1 1.7 2.8 4.4 4.4 2.8 1.6 6 1.6 3.2 0 5.9-1.6 2.7-1.6 4.3-4.4 1.6-2.7 1.6-6.1 0-3.3-1.6-6-1.6-2.8-4.3-4.4-2.7-1.6-5.9-1.6-3.2 0-6 1.6z"/><path fill-rule="evenodd" class="a" d="m490.8 66.7l-6.1-10.4q-0.4 0-1.3 0h-8v10.4h-6.7v-35.3h14.7q6.9 0 10.6 3.2 3.7 3.2 3.7 9 0 4.1-1.8 7-1.8 3-5.2 4.4l7.8 11.7zm-15.3-16.3h7.9q3.8 0 5.9-1.7 2-1.6 2-4.9 0-3.2-2-4.9-2.1-1.6-5.9-1.6h-7.9z"/><path class="a" d="m509.3 31.4h28.7v6h-10.9v29.3h-6.9v-29.3h-10.9z"/><path class="b" d="m163.2 93.7q-1.3-0.4-2.3-0.4-1.1 0-1.8 0.4-0.6 0.4-0.6 1.2 0 0.7 0.4 1.1 0.5 0.5 1.1 0.7 0.7 0.3 1.9 0.7 1.6 0.5 2.7 1 1 0.4 1.8 1.4 0.7 0.9 0.7 2.5 0 1.5-0.8 2.5-0.8 1.1-2.2 1.7-1.4 0.6-3.2 0.6-1.9 0-3.7-0.7-1.8-0.7-3.1-1.9l1.3-2.6q1.2 1.1 2.7 1.8 1.6 0.6 2.9 0.6 1.3 0 2-0.5 0.8-0.5 0.8-1.3 0-0.7-0.5-1.2-0.4-0.4-1.1-0.7-0.7-0.3-1.9-0.6-1.7-0.5-2.7-1-1-0.4-1.8-1.4-0.7-0.9-0.7-2.4 0-1.4 0.7-2.5 0.8-1 2.1-1.6 1.4-0.6 3.2-0.6 1.6 0 3.1 0.5 1.6 0.4 2.8 1.2l-1.3 2.7q-1.2-0.8-2.5-1.2z"/><path class="b" d="m203 90.8l-5.9 10.8v5.3h-3.1v-5.2l-6.1-10.9h3.2l4.4 7.6 4.3-7.6z"/><path class="b" d="m232.8 93.7q-1.3-0.4-2.3-0.4-1.1 0-1.7 0.4-0.7 0.4-0.7 1.2 0 0.7 0.5 1.1 0.4 0.5 1.1 0.7 0.7 0.3 1.9 0.7 1.6 0.5 2.7 1 1 0.4 1.8 1.4 0.7 0.9 0.7 2.5 0 1.5-0.8 2.5-0.8 1.1-2.2 1.7-1.4 0.6-3.2 0.6-1.9 0-3.7-0.7-1.8-0.7-3.1-1.9l1.3-2.6q1.2 1.1 2.7 1.8 1.5 0.6 2.9 0.6 1.3 0 2-0.5 0.7-0.5 0.7-1.3 0-0.7-0.4-1.2-0.5-0.4-1.2-0.7-0.7-0.3-1.9-0.6-1.6-0.5-2.6-1-1.1-0.4-1.8-1.4-0.7-0.9-0.7-2.4 0-1.4 0.7-2.5 0.8-1 2.1-1.6 1.4-0.6 3.2-0.6 1.6 0 3.1 0.5 1.5 0.4 2.7 1.2l-1.2 2.7q-1.3-0.8-2.6-1.2z"/><path class="b" d="m257.6 90.8h13.2v2.7h-5v13.4h-3.1v-13.4h-5.1z"/><path class="b" d="m291.6 90.8h11.9v2.7h-8.8v3.9h7.9v2.8h-7.9v4h9.1v2.7h-12.2z"/><path class="b" d="m324.6 90.8h3.5l5.4 10.4 5.3-10.4h3.5v16.1h-2.8v-11.6l-5.1 10h-1.9l-5.1-10v11.6h-2.8z"/><path class="b" d="m372.2 93.7q-1.3-0.4-2.3-0.4-1.1 0-1.7 0.4-0.7 0.4-0.7 1.2 0 0.7 0.5 1.1 0.4 0.5 1.1 0.7 0.7 0.3 1.8 0.7 1.7 0.5 2.7 1 1.1 0.4 1.8 1.4 0.8 0.9 0.8 2.5 0 1.5-0.8 2.5-0.8 1.1-2.2 1.7-1.4 0.6-3.2 0.6-1.9 0-3.7-0.7-1.8-0.7-3.2-1.9l1.3-2.6q1.3 1.1 2.8 1.8 1.5 0.6 2.8 0.6 1.3 0 2.1-0.5 0.7-0.5 0.7-1.3 0-0.7-0.5-1.2-0.4-0.4-1.1-0.7-0.7-0.3-1.9-0.6-1.6-0.5-2.7-1-1-0.4-1.8-1.4-0.7-0.9-0.7-2.4 0-1.4 0.8-2.5 0.7-1 2.1-1.6 1.4-0.6 3.2-0.6 1.5 0 3.1 0.5 1.5 0.4 2.7 1.2l-1.2 2.7q-1.3-0.8-2.6-1.2z"/><path class="a" d="m79.1 116.6c-5.9-0.2-11.5-1.4-16.8-3.5 13.9 2.9 29-1 39.8-11.8l6.7 6.7c-8.7 6-19 9-29.7 8.6z"/><path class="b" d="m43.9 19.4c20.9-20.8 54.8-20.8 75.6 0q0.8 0.8 1.6 1.6l-5.6 5.6c-9.1-7.8-20.5-12.3-32.7-12.7-14.3-0.5-27.9 4.6-38.3 14.3-8.8 8.2-14.2 18.7-16.2 29.7-0.2-13.9 5-27.9 15.6-38.5z"/><path class="a" d="m107.7 131.2c-4.8 2.9-10 5.2-15.3 6.9-14.3 2.8-29.5-0.1-41.8-9 18 8.2 38.6 8.9 57.1 2.1z"/><path class="b" d="m66.1 141c-16.2-1.2-32.2-8-44.6-20.4-24.1-24.2-27.1-61.6-8.9-89-11.5 27.3-6.2 60.1 16.1 82.3q3.3 3.4 7 6.2 2.4 3.3 5.4 6.3c7.2 7.2 15.8 12 25 14.6z"/><path class="a" d="m10.7 62.3c-0.7-35 28.6-63.6 63.7-62.2q0.2 0 0.5 0.1c-12.4 1.4-24.3 6.9-33.8 16.3-14.9 14.9-19.9 35.9-15 55-3.1 12.1-2.2 25.1 2.8 36.8-11.8-13-17.8-29.5-18.2-46z"/><path class="b" d="m40.8 40q-1.7 1.6-3.2 3.5c2.5-4.5 5.7-8.7 9.6-12.4 9.7-9 22.3-13.6 35.4-13.2 11.2 0.4 21.6 4.5 30 11.6l-10.5 10.5c-16.9-17-44.4-17-61.3 0z"/><path class="b" d="m28.5 81.3q0.1-1 0.2-2 0.2 0.5 0.4 0.9 0.3 1.1 0.6 2.2 0.1 0.4 0.2 0.8 0.1 0.2 0.2 0.5 0.4 1.3 0.9 2.6 0 0.2 0.1 0.3 0.3 0.8 0.7 1.7c2.3 5.5 5.6 10.7 10 15.3q0.6 0.8 1.3 1.5c9.6 9.5 22.2 15 35.8 15.5 11.9 0.5 23.3-3 32.8-9.7l9.2 9.2c-17.3 11.4-38.5 14.5-57.9 9.2-21.4-5.8-36.3-25.8-34.5-48z"/></svg>