<svg xmlns="http://www.w3.org/2000/svg" width="100%" height="100%" viewBox="0 0 1920 1990" fill-rule="evenodd" stroke-linejoin="round" stroke-miterlimit="2"><style><![CDATA[.B{fill-rule:nonzero}.C{fill:#282560}.D{fill:#61b947}]]></style><g class="C"><path d="M0 1542.06h33.757v176.373H0z"/><path d="M97.76 1542.06h143.874v29.982h-54.93v146.4H152.7v-146.4H97.76v-29.982zm415.862 34c-8.483-4.03-17.1-6.045-25.828-6.045-10.92 0-20.9 2.604-29.982 7.805s-16.2 12.4-21.4 21.543c-5.22 9.152-7.815 19.193-7.815 30.114s2.596 20.954 7.815 30.106c5.2 9.16 12.338 16.386 21.4 21.666 9.073 5.297 19.06 7.937 29.982 7.937 8.404 0 16.843-1.84 25.327-5.535 8.474-3.696 15.998-8.818 22.546-15.374l19.906 22.177c-9.24 9.407-19.985 16.834-32.244 22.3-12.268 5.465-24.702 8.193-37.295 8.193-16.967 0-32.508-4.03-46.615-12.1-14.115-8.06-25.195-19.026-33.255-32.877-8.07-13.87-12.1-29.2-12.1-46 0-16.8 4.12-32.085 12.347-45.858 8.228-13.763 19.44-24.605 33.643-32.5 14.186-7.893 29.938-11.845 47.24-11.845 12.593 0 24.95 2.517 37.04 7.55 12.092 5.05 22.423 12.02 30.985 20.918l-19.65 24.693c-6.213-7.216-13.56-12.848-22.045-16.88m157.1 1.892c-9.24 5.297-16.545 12.513-21.922 21.665-5.376 9.16-8.06 19.273-8.06 30.36s2.728 21.252 8.184 30.493c5.465 9.24 12.77 16.544 21.92 21.912 9.16 5.386 19.114 8.07 29.86 8.07 10.586 0 20.416-2.684 29.48-8.07 9.073-5.368 16.254-12.672 21.543-21.912s7.938-19.405 7.938-30.493-2.65-21.2-7.938-30.36c-5.3-9.152-12.47-16.368-21.543-21.665-9.064-5.298-18.894-7.938-29.48-7.938-10.745 0-20.742 2.64-29.982 7.938m77.23-26.33c14.362 7.894 25.652 18.736 33.88 32.5 8.236 13.78 12.355 29.067 12.355 45.858 0 16.8-4.12 32.13-12.355 46-8.23 13.85-19.52 24.816-33.88 32.877s-30.28 12.092-47.75 12.092-33.388-4.03-47.75-12.092-25.662-19.026-33.9-32.877c-8.228-13.86-12.346-29.2-12.346-46 0-16.8 4.118-32.077 12.346-45.858 8.228-13.763 19.528-24.605 33.9-32.5s30.28-11.845 47.75-11.845 33.388 3.952 47.75 11.845m116.274-9.57h38.553l58.45 113.636 57.95-113.636h38.554v176.373h-30.986v-126.485l-54.93 108.34h-21.666l-55.186-108.34v126.485h-30.74V1542.06zm277.172 0h121.698l-.255 29.48h-87.685v47.617h79.88v29.48h-79.88v69.794H1141.4v-176.37zm237.84 35.9c-9.24 5.297-16.544 12.513-21.92 21.665-5.377 9.16-8.06 19.273-8.06 30.36s2.728 21.252 8.184 30.493c5.465 9.24 12.77 16.544 21.92 21.912 9.16 5.386 19.114 8.07 29.86 8.07 10.587 0 20.417-2.684 29.48-8.07 9.073-5.368 16.254-12.672 21.543-21.912 5.297-9.24 7.938-19.405 7.938-30.493s-2.64-21.2-7.938-30.36c-5.3-9.152-12.47-16.368-21.543-21.665-9.064-5.298-18.894-7.938-29.48-7.938-10.745 0-20.742 2.64-29.982 7.938m77.23-26.33c14.36 7.894 25.652 18.736 33.88 32.5 8.237 13.78 12.356 29.067 12.356 45.858 0 16.8-4.12 32.13-12.356 46-8.228 13.85-19.52 24.816-33.88 32.877s-30.282 12.092-47.75 12.092-33.388-4.03-47.75-12.092-25.66-19.026-33.88-32.877c-8.237-13.86-12.356-29.2-12.356-46 0-16.8 4.12-32.077 12.356-45.858 8.22-13.763 19.518-24.605 33.88-32.5s30.282-11.845 47.75-11.845 33.388 3.952 47.75 11.845m150.028 85.17h39.812c12.76 0 22.5-2.772 29.225-8.316s10.085-13.772 10.085-24.693c0-10.754-3.37-18.815-10.085-24.192-6.715-5.368-16.465-8.06-29.225-8.06H1606.5v65.262zm76.596 81.63l-30.484-52.15c-1.346.167-3.45.246-6.3.246H1606.5v51.903h-33.767v-176.373h73.58c22.845 0 40.48 5.3 52.915 15.876 12.426 10.578 18.64 25.53 18.64 44.854 0 13.764-2.984 25.53-8.94 35.27-5.967 9.742-14.66 17.055-26.075 21.922l38.8 58.45h-38.545zm92.474-176.37h143.874v29.982h-54.93v146.4H1830.5v-146.4h-54.93v-29.982z" class="B"/></g><path d="M686.472 1893.98c-4.26-1.346-8.017-2.033-11.256-2.033-3.617 0-6.486.687-8.6 2.033-2.112 1.355-3.168 3.247-3.168 5.658 0 2.192.74 4.022 2.2 5.492s3.318 2.666 5.535 3.608c2.227.94 5.263 1.98 9.108 3.106 5.35 1.593 9.742 3.177 13.174 4.752 3.432 1.584 6.345 3.925 8.756 7.014 2.412 3.098 3.626 7.163 3.626 12.215 0 4.822-1.302 9.02-3.907 12.602-2.596 3.6-6.178 6.318-10.736 8.2-4.568 1.884-9.786 2.825-15.665 2.825-6.177 0-12.214-1.144-18.093-3.44-5.878-2.305-11-5.377-15.374-9.222l6.328-12.892c3.995 3.696 8.483 6.6 13.455 8.703 4.98 2.12 9.6 3.177 13.913 3.177 4.215 0 7.533-.8 9.953-2.438 2.403-1.62 3.617-3.82 3.617-6.618 0-2.252-.74-4.118-2.2-5.588s-3.335-2.657-5.597-3.573c-2.26-.897-5.35-1.918-9.275-3.044-5.35-1.584-9.724-3.133-13.112-4.638-3.397-1.514-6.292-3.784-8.712-6.838-2.412-3.062-3.617-7.075-3.617-12.047 0-4.603 1.223-8.616 3.678-12.04 2.447-3.432 5.914-6.098 10.402-7.982 4.48-1.874 9.67-2.824 15.55-2.824 5.12 0 10.2.756 15.206 2.26 5.017 1.514 9.478 3.547 13.403 6.107l-6.107 13.236c-4.075-2.5-8.237-4.418-12.496-5.773m115.507-14.578l-28.83 53.268v25.9h-15.163v-25.336L728.48 1879.4h15.383l21.595 37.207 21.262-37.207h15.26zm65.072 14.58c-4.26-1.346-8.008-2.033-11.247-2.033-3.617 0-6.485.687-8.597 2.033-2.112 1.355-3.17 3.247-3.17 5.658 0 2.192.74 4.022 2.2 5.492s3.318 2.666 5.544 3.608c2.218.94 5.254 1.98 9.1 3.106 5.35 1.593 9.742 3.177 13.174 4.752 3.432 1.584 6.353 3.925 8.765 7.014 2.4 3.098 3.616 7.163 3.616 12.215 0 4.822-1.302 9.02-3.907 12.602-2.596 3.6-6.178 6.318-10.736 8.2-4.567 1.884-9.786 2.825-15.664 2.825-6.178 0-12.206-1.144-18.093-3.44-5.88-2.305-11-5.377-15.374-9.222l6.327-12.892a46.09 46.09 0 0 0 13.464 8.703c4.972 2.12 9.6 3.177 13.905 3.177 4.224 0 7.54-.8 9.952-2.438 2.412-1.62 3.617-3.82 3.617-6.618 0-2.252-.73-4.118-2.208-5.588-1.47-1.47-3.336-2.657-5.597-3.573-2.262-.897-5.35-1.918-9.267-3.044-5.36-1.584-9.724-3.133-13.12-4.638-3.388-1.514-6.292-3.784-8.703-6.838-2.42-3.062-3.617-7.075-3.617-12.047 0-4.603 1.223-8.616 3.67-12.04 2.447-3.432 5.914-6.098 10.402-7.982 4.488-1.874 9.672-2.824 15.55-2.824 5.122 0 10.2.756 15.207 2.26 5.016 1.514 9.478 3.547 13.402 6.107l-6.107 13.236c-4.066-2.5-8.237-4.418-12.496-5.773m43.025-14.578h64.566v13.456h-24.65v65.702h-15.268v-65.702h-24.65V1879.4zm93.403 0h58v13.236h-42.856v19.563h38.448v13.217h-38.448v19.906h44.212v13.236h-59.366V1879.4zm92.84 0h17.3l26.234 50.997 26.013-50.997h17.3v79.158h-13.913v-56.77l-24.65 48.62h-9.724l-24.764-48.62v56.77h-13.8V1879.4zm161.64 14.58c-4.26-1.346-8.008-2.033-11.246-2.033-3.617 0-6.486.687-8.598 2.033-2.112 1.355-3.168 3.247-3.168 5.658 0 2.192.74 4.022 2.2 5.492s3.318 2.666 5.544 3.608c2.218.94 5.254 1.98 9.1 3.106 5.35 1.593 9.742 3.177 13.174 4.752 3.432 1.584 6.354 3.925 8.765 7.014 2.4 3.098 3.617 7.163 3.617 12.215 0 4.822-1.302 9.02-3.907 12.602-2.596 3.6-6.178 6.318-10.736 8.2-4.568 1.884-9.786 2.825-15.665 2.825-6.177 0-12.206-1.144-18.093-3.44-5.878-2.305-11-5.377-15.374-9.222l6.328-12.892a46.09 46.09 0 0 0 13.464 8.703c4.972 2.12 9.6 3.177 13.904 3.177 4.224 0 7.542-.8 9.953-2.438 2.4-1.62 3.617-3.82 3.617-6.618 0-2.252-.74-4.118-2.2-5.588s-3.335-2.657-5.597-3.573c-2.26-.897-5.35-1.918-9.266-3.044-5.36-1.584-9.725-3.133-13.12-4.638-3.388-1.514-6.293-3.784-8.704-6.838-2.42-3.062-3.617-7.075-3.617-12.047 0-4.603 1.224-8.616 3.67-12.04 2.446-3.432 5.914-6.098 10.402-7.982 4.488-1.874 9.67-2.824 15.55-2.824 5.12 0 10.2.756 15.206 2.26 5.016 1.514 9.478 3.547 13.403 6.107l-6.107 13.236c-4.066-2.5-8.237-4.418-12.497-5.773" class="D B"/><path d="M1454.77 663.03h-88.78c0 143.992-74.743 270.778-187.4 343.846 49.262-20.944 95.037-50.517 135.397-88.062 74.1-68.953 122.774-158.017 140.783-255.784" class="B C"/><path d="M583.212 865.575c-60.46-86.58-94.387-192.702-90.295-306.124 4.86-134.543 61.817-259.14 160.393-350.832 84.17-78.31 190.137-124.433 303.03-133.295V.54C949.34.25 942.325 0 935.247 0c-278.227 0-504.58 226.36-504.58 504.58 0 141.387 58.535 269.296 152.546 360.994" class="B D"/><path d="M1207.28 1192.67c141.142-23.115 262.697-105.004 338.762-219.6 24.466-46.345 43.666-95.864 56.716-147.828-78.048 168.71-220.3 301.838-395.478 367.428" class="B C"/><path d="M1125.5 1237.44c-26.444 0-52.414-2-77.855-5.67-28.882 3.602-58.22 5.67-88.06 5.67-296.652 0-551.148-183.332-656.55-442.575 61.36 304.55 330.954 534.626 653.32 534.626 165.7 0 317.367-60.928 434.084-161.385-78.413 44.07-168.76 69.334-264.937 69.334" class="B D"/><path d="M923.808 1198.42c-111.24-44.71-204.345-125.163-265-227.164-159.214-94.672-266.2-268.38-266.2-466.67 0-126.4 43.563-242.74 116.294-335.08l-3.58 3.277c-243.474 224.166-248.426 610.514-9.665 839.7 112.47 107.968 262.412 177.183 428.14 185.937" class="B C"/><path d="M956.34 253.38V113.463c-103.244 8.72-200.06 51.325-277.116 123.008-91.133 84.778-143.787 199.96-148.3 324.354a463.1 463.1 0 0 0 18.18 146.43c-1.567-14.538-2.422-29.28-2.422-44.224 0-225.88 183.765-409.652 409.647-409.652m335.23 857.68c164.702-94.274 285.767-256.4 324.856-448.03h-123.133c-18.414 108.47-71.472 207.428-153.395 283.635-93.994 87.446-215.122 135-342.83 135a523.95 523.95 0 0 1-18.653-.336c-59.8-2.16-116.716-14.96-169.284-36.126-5.25-2.03-10.47-4.132-15.616-6.372l-2.655-1.202a414.8 414.8 0 0 1-23.845-11.507l-4.24-2.177c-2.263-1.22-4.474-2.513-6.702-3.767-6.292-3.43-12.606-6.822-18.727-10.5l-8.298-3.277a517.21 517.21 0 0 0 11.854 14.499c135.734 159.875 368.653 194.354 550.67 90.17" class="D B"/></svg>