<svg xmlns="http://www.w3.org/2000/svg" width="100%" height="100%" viewBox="0 0 100 117" fill-rule="nonzero" stroke-linejoin="round" stroke-miterlimit="2" fill="#fff"><path d="M89.07 89.067l-5.5-5.5C74.678 92.48 62.217 95.7 50.732 93.25a40.79 40.79 0 0 0 13.818 2.926c8.846.32 17.362-2.178 24.52-7.1M22.654 47.7A43.85 43.85 0 0 1 36 23.186c8.62-8.02 19.846-12.2 31.612-11.776 10.046.363 19.45 4.063 26.98 10.496l4.624-4.625a45.49 45.49 0 0 0-1.271-1.337c-17.204-17.204-45.197-17.204-62.4 0C26.8 24.686 22.5 36.216 22.654 47.7m18.364 58.813c10.156 7.298 22.736 9.75 34.526 7.368 4.378-1.353 8.628-3.227 12.648-5.634-15.258 5.606-32.287 5.04-47.174-1.734m-7.826-2.29c-1.635-1.635-3.118-3.364-4.464-5.165a61.92 61.92 0 0 1-5.795-5.095C4.6 75.62.2 48.548 9.702 26-5.336 48.626-2.893 79.524 17.04 99.456c10.246 10.247 23.392 15.858 36.82 16.864a47.15 47.15 0 0 1-20.669-12.096M23.133 89.34a47.72 47.72 0 0 1-2.339-30.433c-4-15.7.135-33.054 12.397-45.316C41.007 5.775 50.894 1.275 61.1.063l-.424-.02C31.76-1.15 7.565 22.433 8.156 51.368 8.435 65 13.427 78.55 23.133 89.34m60.45-56.424l8.65-8.65c-6.923-5.846-15.544-9.198-24.74-9.53a40.48 40.48 0 0 0-29.225 10.887 40.47 40.47 0 0 0-7.931 10.179 36.39 36.39 0 0 1 2.584-2.885c13.968-13.967 36.695-13.967 50.662 0M51.275 106.68c16.014 4.354 33.524 1.815 47.792-7.617l-7.614-7.613c-7.847 5.568-17.246 8.406-27.024 8.053-11.22-.405-21.65-4.955-29.547-12.852a46.5 46.5 0 0 1-1.132-1.173c-3.566-3.833-6.293-8.143-8.234-12.702a34.31 34.31 0 0 1-.572-1.36l-.1-.238c-.278-.723-.533-1.45-.763-2.186l-.128-.398c-.064-.215-.12-.43-.18-.646-.176-.602-.358-1.202-.508-1.808l-.3-.716a46.58 46.58 0 0 0-.163 1.63C21.3 85.334 33.57 101.868 51.267 106.68"/></svg>