<?xml version="1.0" encoding="UTF-8" standalone="no"?><!DOCTYPE svg PUBLIC "-//W3C//DTD SVG 1.1//EN" "http://www.w3.org/Graphics/SVG/1.1/DTD/svg11.dtd"><svg width="100%" height="100%" viewBox="0 0 100 117" version="1.1" xmlns="http://www.w3.org/2000/svg" xmlns:xlink="http://www.w3.org/1999/xlink" xml:space="preserve" xmlns:serif="http://www.serif.com/" style="fill-rule:evenodd;clip-rule:evenodd;stroke-linejoin:round;stroke-miterlimit:2;"><path d="M89.071,89.067l-5.49,-5.49c-8.903,8.903 -21.364,12.122 -32.849,9.674c4.341,1.751 9,2.753 13.818,2.926c8.846,0.32 17.362,-2.178 24.521,-7.11" style="fill:#fff;fill-rule:nonzero;"/><path d="M22.654,47.699c1.615,-9.093 6.08,-17.753 13.346,-24.513c8.62,-8.019 19.846,-12.201 31.612,-11.776c10.046,0.363 19.451,4.063 26.98,10.496l4.624,-4.625c-0.415,-0.45 -0.833,-0.899 -1.271,-1.337c-17.204,-17.204 -45.197,-17.204 -62.401,0c-8.743,8.742 -13.033,20.272 -12.89,31.755" style="fill:#fff;fill-rule:nonzero;"/><path d="M41.018,106.513c10.156,7.298 22.736,9.75 34.526,7.368c4.378,-1.353 8.628,-3.227 12.648,-5.634c-15.258,5.606 -32.287,5.041 -47.174,-1.734" style="fill:#fff;fill-rule:nonzero;"/><path d="M33.192,104.224c-1.635,-1.635 -3.118,-3.364 -4.464,-5.165c-2.008,-1.563 -3.951,-3.249 -5.795,-5.095c-18.344,-18.343 -22.744,-45.416 -13.231,-67.964c-15.038,22.626 -12.595,53.524 7.339,73.456c10.246,10.247 23.392,15.858 36.82,16.864c-7.573,-2.124 -14.722,-6.149 -20.669,-12.096" style="fill:#fff;fill-rule:nonzero;"/><path d="M23.133,89.34c-4.114,-9.644 -4.896,-20.375 -2.339,-30.433c-3.991,-15.699 0.135,-33.054 12.397,-45.316c7.816,-7.816 17.703,-12.316 27.91,-13.528c-0.141,-0.007 -0.283,-0.014 -0.424,-0.02c-28.917,-1.193 -53.112,22.39 -52.521,51.325c0.279,13.631 5.271,27.183 14.977,37.972" style="fill:#fff;fill-rule:nonzero;"/><path d="M83.582,32.916l8.651,-8.651c-6.923,-5.846 -15.544,-9.198 -24.741,-9.53c-10.878,-0.392 -21.256,3.474 -29.225,10.887c-3.258,3.03 -5.899,6.477 -7.931,10.179c0.802,-0.996 1.661,-1.96 2.584,-2.885c13.968,-13.967 36.695,-13.967 50.662,0" style="fill:#fff;fill-rule:nonzero;"/><path d="M51.275,106.679c16.014,4.354 33.524,1.815 47.792,-7.617l-7.614,-7.613c-7.847,5.568 -17.246,8.406 -27.024,8.053c-11.22,-0.405 -21.65,-4.955 -29.547,-12.852c-0.384,-0.383 -0.761,-0.775 -1.132,-1.173c-3.566,-3.833 -6.293,-8.143 -8.234,-12.702c-0.199,-0.45 -0.392,-0.903 -0.572,-1.36c-0.031,-0.079 -0.06,-0.159 -0.09,-0.238c-0.278,-0.723 -0.533,-1.451 -0.763,-2.186c-0.042,-0.133 -0.086,-0.265 -0.128,-0.398c-0.064,-0.215 -0.121,-0.431 -0.181,-0.646c-0.176,-0.602 -0.358,-1.202 -0.508,-1.808c-0.104,-0.239 -0.211,-0.477 -0.311,-0.716c-0.064,0.542 -0.118,1.085 -0.163,1.629c-1.493,18.279 10.777,34.814 28.475,39.627" style="fill:#fff;fill-rule:nonzero;"/></svg>