<svg xmlns="http://www.w3.org/2000/svg" width="100%" height="100%" viewBox="0 0 1314 1330" fill-rule="nonzero" stroke-linejoin="round" stroke-miterlimit="2"><path d="M1151.75 663.03h-88.78c0 143.992-74.743 270.778-187.4 343.846 49.262-20.944 95.037-50.517 135.397-88.062 74.11-68.953 122.775-158.017 140.784-255.784" fill="#282560"/><path d="M280.19 865.575c-60.46-86.58-94.388-192.702-90.296-306.124 4.86-134.543 61.818-259.14 160.394-350.832 84.17-78.31 190.137-124.433 303.03-133.295V.54c-7-.3-14.014-.54-21.092-.54C354 0 127.645 226.36 127.645 504.58c0 141.387 58.534 269.296 152.546 360.994" fill="#61b947"/><path d="M904.254 1192.67c141.142-23.115 262.697-105.004 338.762-219.6 24.466-46.345 43.666-95.864 56.717-147.828-78.05 168.71-220.302 301.838-395.48 367.428" fill="#282560"/><path d="M822.467 1237.44c-26.443 0-52.414-2-77.854-5.67-28.883 3.602-58.222 5.67-88.062 5.67-296.65 0-551.147-183.332-656.55-442.575 61.36 304.55 330.954 534.626 653.32 534.626 165.71 0 317.368-60.928 434.084-161.385-78.413 44.07-168.76 69.334-264.937 69.334" fill="#61b947"/><path d="M620.786 1198.42c-111.24-44.71-204.345-125.163-265-227.164-159.214-94.672-266.19-268.38-266.19-466.67 0-126.4 43.564-242.74 116.295-335.08l-3.58 3.277c-243.474 224.166-248.427 610.514-9.666 839.7 112.47 107.968 262.412 177.183 428.14 185.937" fill="#282560"/><path d="M653.32 253.38V113.463c-103.244 8.72-200.06 51.325-277.116 123.008-91.133 84.778-143.786 199.96-148.288 324.354-1.836 50.84 4.678 100.064 18.18 146.43-1.567-14.538-2.422-29.28-2.422-44.224 0-225.88 183.766-409.652 409.647-409.652m335.222 857.68c164.702-94.274 285.767-256.4 324.857-448.03h-123.134c-18.413 108.47-71.47 207.428-153.395 283.635-93.994 87.446-215.12 135-342.83 135a523.95 523.95 0 0 1-18.653-.336c-59.8-2.16-116.716-14.96-169.284-36.126-5.25-2.03-10.47-4.132-15.615-6.372l-2.656-1.202a414.8 414.8 0 0 1-23.845-11.507l-4.24-2.177c-2.262-1.22-4.474-2.513-6.702-3.767-6.292-3.43-12.606-6.822-18.727-10.5l-8.298-3.277a517.21 517.21 0 0 0 11.854 14.499c135.734 159.875 368.654 194.354 550.67 90.17" fill="#61b947"/></svg>