<?xml version="1.0" encoding="UTF-8" standalone="no"?><!DOCTYPE svg PUBLIC "-//W3C//DTD SVG 1.1//EN" "http://www.w3.org/Graphics/SVG/1.1/DTD/svg11.dtd"><svg width="100%" height="100%" viewBox="0 0 1920 1990" version="1.1" xmlns="http://www.w3.org/2000/svg" xmlns:xlink="http://www.w3.org/1999/xlink" xml:space="preserve" xmlns:serif="http://www.serif.com/" style="fill-rule:evenodd;clip-rule:evenodd;stroke-linejoin:round;stroke-miterlimit:2;"><g id="Logo"><rect x="0" y="1542.06" width="33.757" height="176.373" style="fill:#282560;"/><path d="M97.759,1542.06l143.874,0l0,29.982l-54.931,0l0,146.391l-34.012,0l0,-146.391l-54.931,0l0,-29.982Z" style="fill:#282560;fill-rule:nonzero;"/><path d="M513.622,1576.07c-8.483,-4.03 -17.09,-6.045 -25.828,-6.045c-10.921,0 -20.909,2.604 -29.982,7.805c-9.073,5.21 -16.21,12.391 -21.411,21.543c-5.219,9.152 -7.815,19.193 -7.815,30.114c0,10.921 2.596,20.954 7.815,30.106c5.201,9.161 12.338,16.386 21.411,21.666c9.073,5.297 19.061,7.937 29.982,7.937c8.404,0 16.843,-1.839 25.327,-5.535c8.474,-3.696 15.998,-8.818 22.546,-15.374l19.906,22.177c-9.24,9.407 -19.985,16.834 -32.244,22.29c-12.268,5.465 -24.702,8.193 -37.295,8.193c-16.967,0 -32.508,-4.03 -46.615,-12.091c-14.115,-8.061 -25.195,-19.026 -33.255,-32.877c-8.07,-13.869 -12.101,-29.191 -12.101,-45.99c0,-16.791 4.119,-32.085 12.347,-45.858c8.228,-13.763 19.44,-24.605 33.643,-32.499c14.186,-7.893 29.938,-11.845 47.239,-11.845c12.593,0 24.949,2.517 37.04,7.551c12.092,5.051 22.423,12.021 30.985,20.918l-19.65,24.693c-6.213,-7.216 -13.561,-12.848 -22.045,-16.879" style="fill:#282560;fill-rule:nonzero;"/><path d="M670.724,1577.96c-9.24,5.297 -16.545,12.513 -21.922,21.665c-5.376,9.161 -8.06,19.273 -8.06,30.361c0,11.088 2.728,21.252 8.184,30.493c5.465,9.24 12.769,16.544 21.921,21.912c9.161,5.386 19.114,8.07 29.859,8.07c10.586,0 20.416,-2.684 29.48,-8.07c9.073,-5.368 16.254,-12.672 21.543,-21.912c5.289,-9.241 7.938,-19.405 7.938,-30.493c0,-11.088 -2.649,-21.2 -7.938,-30.361c-5.289,-9.152 -12.47,-16.368 -21.543,-21.665c-9.064,-5.298 -18.894,-7.938 -29.48,-7.938c-10.745,0 -20.742,2.64 -29.982,7.938m77.23,-26.331c14.362,7.894 25.652,18.736 33.881,32.499c8.236,13.781 12.355,29.067 12.355,45.858c0,16.8 -4.119,32.129 -12.355,45.99c-8.229,13.851 -19.519,24.816 -33.881,32.877c-14.362,8.061 -30.281,12.092 -47.75,12.092c-17.468,0 -33.388,-4.031 -47.749,-12.092c-14.362,-8.061 -25.662,-19.026 -33.89,-32.877c-8.228,-13.861 -12.346,-29.19 -12.346,-45.99c0,-16.791 4.118,-32.077 12.346,-45.858c8.228,-13.763 19.528,-24.605 33.89,-32.499c14.361,-7.893 30.281,-11.845 47.749,-11.845c17.469,0 33.388,3.952 47.75,11.845" style="fill:#282560;fill-rule:nonzero;"/><path d="M864.228,1542.06l38.553,0l58.451,113.636l57.949,-113.636l38.554,0l0,176.373l-30.986,0l0,-126.485l-54.93,108.339l-21.666,0l-55.186,-108.339l0,126.485l-30.739,0l0,-176.373Z" style="fill:#282560;fill-rule:nonzero;"/><path d="M1141.39,1542.06l121.698,0l-0.255,29.481l-87.685,0l0,47.617l79.879,0l0,29.481l-79.879,0l0,69.794l-33.758,0l0,-176.373Z" style="fill:#282560;fill-rule:nonzero;"/><path d="M1379.24,1577.96c-9.24,5.297 -16.544,12.513 -21.921,21.665c-5.377,9.161 -8.061,19.273 -8.061,30.361c0,11.088 2.728,21.252 8.184,30.493c5.465,9.24 12.769,16.544 21.921,21.912c9.161,5.386 19.114,8.07 29.859,8.07c10.587,0 20.417,-2.684 29.481,-8.07c9.073,-5.368 16.254,-12.672 21.543,-21.912c5.297,-9.241 7.938,-19.405 7.938,-30.493c0,-11.088 -2.641,-21.2 -7.938,-30.361c-5.289,-9.152 -12.47,-16.368 -21.543,-21.665c-9.064,-5.298 -18.894,-7.938 -29.481,-7.938c-10.745,0 -20.742,2.64 -29.982,7.938m77.231,-26.331c14.361,7.894 25.652,18.736 33.88,32.499c8.237,13.781 12.356,29.067 12.356,45.858c0,16.8 -4.119,32.129 -12.356,45.99c-8.228,13.851 -19.519,24.816 -33.88,32.877c-14.362,8.061 -30.282,12.092 -47.75,12.092c-17.468,0 -33.388,-4.031 -47.75,-12.092c-14.362,-8.061 -25.661,-19.026 -33.88,-32.877c-8.237,-13.861 -12.356,-29.19 -12.356,-45.99c0,-16.791 4.119,-32.077 12.356,-45.858c8.219,-13.763 19.518,-24.605 33.88,-32.499c14.362,-7.893 30.282,-11.845 47.75,-11.845c17.468,0 33.388,3.952 47.75,11.845" style="fill:#282560;fill-rule:nonzero;"/><path d="M1606.51,1636.79l39.812,0c12.76,0 22.51,-2.772 29.225,-8.316c6.714,-5.544 10.085,-13.772 10.085,-24.693c0,-10.754 -3.371,-18.815 -10.085,-24.192c-6.715,-5.368 -16.465,-8.061 -29.225,-8.061l-39.812,0l0,65.262Zm76.596,81.63l-30.484,-52.149c-1.346,0.167 -3.449,0.246 -6.3,0.246l-39.812,0l0,51.903l-33.767,0l0,-176.373l73.579,0c22.845,0 40.48,5.289 52.915,15.876c12.426,10.578 18.639,25.529 18.639,44.854c0,13.764 -2.984,25.53 -8.941,35.271c-5.967,9.742 -14.661,17.055 -26.075,21.922l38.791,58.45l-38.545,0Z" style="fill:#282560;fill-rule:nonzero;"/><path d="M1775.57,1542.06l143.874,0l0,29.982l-54.931,0l0,146.391l-34.012,0l0,-146.391l-54.931,0l0,-29.982Z" style="fill:#282560;fill-rule:nonzero;"/><path d="M686.472,1893.98c-4.26,-1.346 -8.017,-2.033 -11.256,-2.033c-3.617,0 -6.486,0.687 -8.589,2.033c-2.112,1.355 -3.168,3.247 -3.168,5.658c0,2.192 0.739,4.022 2.209,5.492c1.47,1.469 3.318,2.666 5.535,3.608c2.227,0.941 5.263,1.98 9.108,3.106c5.351,1.593 9.742,3.177 13.174,4.752c3.432,1.584 6.345,3.925 8.756,7.014c2.412,3.098 3.626,7.163 3.626,12.215c0,4.822 -1.302,9.02 -3.907,12.602c-2.596,3.59 -6.178,6.318 -10.736,8.201c-4.568,1.884 -9.786,2.825 -15.665,2.825c-6.177,0 -12.214,-1.144 -18.093,-3.441c-5.878,-2.305 -11.009,-5.377 -15.374,-9.222l6.328,-12.892c3.995,3.696 8.483,6.6 13.455,8.703c4.981,2.121 9.61,3.177 13.913,3.177c4.215,0 7.533,-0.81 9.953,-2.438c2.403,-1.619 3.617,-3.819 3.617,-6.618c0,-2.252 -0.739,-4.118 -2.209,-5.588c-1.469,-1.469 -3.335,-2.657 -5.597,-3.573c-2.261,-0.897 -5.35,-1.918 -9.275,-3.044c-5.351,-1.584 -9.724,-3.133 -13.112,-4.638c-3.397,-1.514 -6.292,-3.784 -8.712,-6.838c-2.412,-3.062 -3.617,-7.075 -3.617,-12.047c0,-4.603 1.223,-8.616 3.678,-12.039c2.447,-3.432 5.914,-6.098 10.402,-7.982c4.479,-1.874 9.671,-2.824 15.55,-2.824c5.121,0 10.19,0.756 15.206,2.261c5.017,1.514 9.478,3.547 13.403,6.107l-6.107,13.236c-4.075,-2.491 -8.237,-4.418 -12.496,-5.773" style="fill:#61b947;fill-rule:nonzero;"/><path d="M801.978,1879.4l-28.829,53.268l0,25.89l-15.163,0l0,-25.336l-29.507,-53.822l15.383,0l21.595,37.207l21.262,-37.207l15.259,0Z" style="fill:#61b947;fill-rule:nonzero;"/><path d="M867.051,1893.98c-4.259,-1.346 -8.008,-2.033 -11.247,-2.033c-3.617,0 -6.485,0.687 -8.597,2.033c-2.112,1.355 -3.169,3.247 -3.169,5.658c0,2.192 0.74,4.022 2.209,5.492c1.47,1.469 3.318,2.666 5.544,3.608c2.218,0.941 5.254,1.98 9.1,3.106c5.35,1.593 9.742,3.177 13.174,4.752c3.432,1.584 6.353,3.925 8.765,7.014c2.411,3.098 3.616,7.163 3.616,12.215c0,4.822 -1.302,9.02 -3.907,12.602c-2.596,3.59 -6.178,6.318 -10.736,8.201c-4.567,1.884 -9.786,2.825 -15.664,2.825c-6.178,0 -12.206,-1.144 -18.093,-3.441c-5.879,-2.305 -11.001,-5.377 -15.374,-9.222l6.327,-12.892c3.995,3.696 8.483,6.6 13.464,8.703c4.972,2.121 9.61,3.177 13.905,3.177c4.224,0 7.541,-0.81 9.952,-2.438c2.412,-1.619 3.617,-3.819 3.617,-6.618c0,-2.252 -0.73,-4.118 -2.208,-5.588c-1.47,-1.469 -3.336,-2.657 -5.597,-3.573c-2.262,-0.897 -5.351,-1.918 -9.267,-3.044c-5.359,-1.584 -9.724,-3.133 -13.121,-4.638c-3.388,-1.514 -6.292,-3.784 -8.703,-6.838c-2.42,-3.062 -3.617,-7.075 -3.617,-12.047c0,-4.603 1.223,-8.616 3.669,-12.039c2.447,-3.432 5.914,-6.098 10.402,-7.982c4.488,-1.874 9.672,-2.824 15.55,-2.824c5.122,0 10.191,0.756 15.207,2.261c5.016,1.514 9.478,3.547 13.402,6.107l-6.107,13.236c-4.066,-2.491 -8.237,-4.418 -12.496,-5.773" style="fill:#61b947;fill-rule:nonzero;"/><path d="M910.077,1879.4l64.566,0l0,13.456l-24.649,0l0,65.702l-15.268,0l0,-65.702l-24.649,0l0,-13.456Z" style="fill:#61b947;fill-rule:nonzero;"/><path d="M1003.48,1879.4l58.01,0l0,13.236l-42.856,0l0,19.563l38.448,0l0,13.217l-38.448,0l0,19.906l44.212,0l0,13.236l-59.366,0l0,-79.158Z" style="fill:#61b947;fill-rule:nonzero;"/><path d="M1096.32,1879.4l17.301,0l26.234,50.997l26.013,-50.997l17.301,0l0,79.158l-13.913,0l0,-56.77l-24.649,48.621l-9.724,0l-24.764,-48.621l0,56.77l-13.799,0l0,-79.158Z" style="fill:#61b947;fill-rule:nonzero;"/><path d="M1257.96,1893.98c-4.259,-1.346 -8.008,-2.033 -11.246,-2.033c-3.617,0 -6.486,0.687 -8.598,2.033c-2.112,1.355 -3.168,3.247 -3.168,5.658c0,2.192 0.739,4.022 2.209,5.492c1.47,1.469 3.318,2.666 5.544,3.608c2.218,0.941 5.254,1.98 9.099,3.106c5.351,1.593 9.742,3.177 13.174,4.752c3.432,1.584 6.354,3.925 8.765,7.014c2.411,3.098 3.617,7.163 3.617,12.215c0,4.822 -1.302,9.02 -3.907,12.602c-2.596,3.59 -6.178,6.318 -10.736,8.201c-4.568,1.884 -9.786,2.825 -15.665,2.825c-6.177,0 -12.206,-1.144 -18.093,-3.441c-5.878,-2.305 -11,-5.377 -15.374,-9.222l6.328,-12.892c3.995,3.696 8.483,6.6 13.464,8.703c4.972,2.121 9.61,3.177 13.904,3.177c4.224,0 7.542,-0.81 9.953,-2.438c2.411,-1.619 3.617,-3.819 3.617,-6.618c0,-2.252 -0.739,-4.118 -2.209,-5.588c-1.47,-1.469 -3.335,-2.657 -5.597,-3.573c-2.261,-0.897 -5.35,-1.918 -9.266,-3.044c-5.36,-1.584 -9.725,-3.133 -13.121,-4.638c-3.388,-1.514 -6.293,-3.784 -8.704,-6.838c-2.42,-3.062 -3.617,-7.075 -3.617,-12.047c0,-4.603 1.224,-8.616 3.67,-12.039c2.446,-3.432 5.914,-6.098 10.402,-7.982c4.488,-1.874 9.671,-2.824 15.55,-2.824c5.121,0 10.19,0.756 15.206,2.261c5.016,1.514 9.478,3.547 13.403,6.107l-6.107,13.236c-4.066,-2.491 -8.237,-4.418 -12.497,-5.773" style="fill:#61b947;fill-rule:nonzero;"/><path d="M1454.77,663.031l-88.779,0c0,143.992 -74.743,270.778 -187.401,343.846c49.262,-20.944 95.037,-50.517 135.397,-88.062c74.11,-68.953 122.774,-158.017 140.783,-255.784" style="fill:#282560;fill-rule:nonzero;"/><path d="M583.212,865.575c-60.461,-86.58 -94.387,-192.702 -90.295,-306.124c4.861,-134.543 61.817,-259.14 160.393,-350.832c84.169,-78.311 190.137,-124.433 303.029,-133.295l0,-74.783c-6.998,-0.29 -14.014,-0.541 -21.092,-0.541c-278.227,0 -504.581,226.36 -504.581,504.581c0,141.387 58.535,269.296 152.546,360.994" style="fill:#61b947;fill-rule:nonzero;"/><path d="M1207.28,1192.67c141.142,-23.115 262.697,-105.004 338.762,-219.6c24.466,-46.345 43.666,-95.864 56.716,-147.828c-78.048,168.709 -220.301,301.838 -395.478,367.428" style="fill:#282560;fill-rule:nonzero;"/><path d="M1125.49,1237.44c-26.444,0 -52.414,-2 -77.855,-5.67c-28.882,3.602 -58.221,5.67 -88.061,5.67c-296.652,0 -551.148,-183.332 -656.551,-442.575c61.361,304.55 330.954,534.626 653.32,534.626c165.71,0 317.367,-60.928 434.084,-161.385c-78.413,44.07 -168.76,69.334 -264.937,69.334" style="fill:#61b947;fill-rule:nonzero;"/><path d="M923.808,1198.42c-111.24,-44.709 -204.345,-125.163 -265,-227.164c-159.214,-94.672 -266.19,-268.379 -266.19,-466.671c0,-126.399 43.563,-242.739 116.294,-335.08c-1.196,1.088 -2.393,2.183 -3.579,3.277c-243.474,224.166 -248.426,610.514 -9.665,839.701c112.47,107.968 262.412,177.183 428.14,185.937" style="fill:#282560;fill-rule:nonzero;"/><path d="M956.341,253.38l0,-139.917c-103.244,8.719 -200.059,51.325 -277.116,123.008c-91.133,84.778 -143.787,199.961 -148.289,324.354c-1.835,50.841 4.679,100.064 18.18,146.431c-1.567,-14.538 -2.422,-29.281 -2.422,-44.224c0,-225.881 183.765,-409.652 409.647,-409.652" style="fill:#61b947;fill-rule:nonzero;"/><path d="M1291.57,1111.06c164.702,-94.274 285.767,-256.4 324.856,-448.03l-123.133,0c-18.414,108.47 -71.472,207.428 -153.395,283.635c-93.994,87.446 -215.122,134.999 -342.831,134.999c-6.206,0 -12.418,-0.114 -18.653,-0.336c-59.811,-2.16 -116.716,-14.96 -169.284,-36.126c-5.249,-2.029 -10.469,-4.132 -15.616,-6.372c-0.889,-0.393 -1.766,-0.803 -2.655,-1.202c-8.087,-3.591 -16.037,-7.426 -23.845,-11.507c-1.413,-0.729 -2.838,-1.442 -4.24,-2.177c-2.263,-1.219 -4.474,-2.513 -6.702,-3.767c-6.292,-3.431 -12.606,-6.822 -18.727,-10.509c-2.77,-1.083 -5.551,-2.143 -8.298,-3.277c3.864,4.907 7.819,9.74 11.854,14.499c135.734,159.875 368.653,194.354 550.669,90.17" style="fill:#61b947;fill-rule:nonzero;"/></g></svg>